<svg version="1.1" id="Layer_1" xmlns="http://www.w3.org/2000/svg" xmlns:xlink="http://www.w3.org/1999/xlink" x="0px" y="0px"
	 viewBox="0 0 64 64" style="enable-background:new 0 0 64 64;" xml:space="preserve">
<style type="text/css">
	.st0{fill:#6CC04A;}
	.st1{fill:none;}
</style>
<g>
	<path class="st0" d="M32,64C14.2,64,0,49.4,0,32C0,14.2,14.6,0,32,0s32,14.6,32,32C64,49.8,49.8,64,32,64z M32,3.6C16.6,3.6,3.6,16.2,3.6,32
		c0,15.4,12.6,28.4,28.4,28.4S60.4,47.8,60.4,32C60.4,16.6,47.4,3.6,32,3.6z"/>
	<path class="st0" d="M28,20c0-2.2,1.8-4,4-4s4,1.8,4,4s-1.8,4-4,4S28,22.2,28,20z M36,47V29c0-0.5-0.5-1-1-1h-6c-0.5,0-1,0.4-1,1v18
		c0,0.5,0.4,1,1,1h6C35.5,48,36,47.5,36,47z"/>
</g>
</svg>