<?xml version="1.0" encoding="UTF-8"?>
<svg width="13px" height="13px" viewBox="0 0 13 13" version="1.1" xmlns="http://www.w3.org/2000/svg" xmlns:xlink="http://www.w3.org/1999/xlink">
    <!-- Generator: Sketch 53.1 (72631) - https://sketchapp.com -->
    <title>T</title>
    <desc>Created with Sketch.</desc>
    <g id="Design" stroke="none" stroke-width="1" fill="none" fill-rule="evenodd">
        <path d="M7.57810693,6.50001788 L12.4218454,11.3437563 C12.4739284,11.3958393 12.4999702,11.4674542 12.4999702,11.5585996 C12.4999702,11.649745 12.4739284,11.7213598 12.4218454,11.7734428 L11.52341,12.6718782 C11.471327,12.7239612 11.3997122,12.750003 11.3085668,12.750003 C11.2174214,12.750003 11.1458066,12.7239612 11.0937236,12.6718782 L6.2499851,7.82813971 L1.40624665,12.6718782 C1.35416364,12.7239612 1.28254883,12.750003 1.19140341,12.750003 C1.10025799,12.750003 1.02864318,12.7239612 0.976560172,12.6718782 L0.0781248137,11.7734428 C0.0260418033,11.7213598 0,11.649745 0,11.5585996 C0,11.4674542 0.0260418033,11.3958393 0.0781248137,11.3437563 L4.92186327,6.50001788 L0.0781248137,1.65627943 C0.0260418033,1.60419642 0,1.53258161 0,1.44143619 C0,1.35029077 0.0260418033,1.27867596 0.0781248137,1.22659295 L0.976560172,0.328157596 C1.02864318,0.276074586 1.10025799,0.250032783 1.19140341,0.250032783 C1.28254883,0.250032783 1.35416364,0.276074586 1.40624665,0.328157596 L6.2499851,5.17189605 L11.0937236,0.328157596 C11.1458066,0.276074586 11.2174214,0.250032783 11.3085668,0.250032783 C11.3997122,0.250032783 11.471327,0.276074586 11.52341,0.328157596 L12.4218454,1.22659295 C12.4739284,1.27867596 12.4999702,1.35029077 12.4999702,1.44143619 C12.4999702,1.53258161 12.4739284,1.60419642 12.4218454,1.65627943 L7.57810693,6.50001788 Z" id="T" fill="#000000" fill-rule="nonzero"></path>
    </g>
</svg>