<?xml version="1.0" encoding="UTF-8"?>
<svg width="20px" height="20px" viewBox="-9 -9 42 42" version="1.1" xmlns="http://www.w3.org/2000/svg" xmlns:xlink="http://www.w3.org/1999/xlink">
    <!-- Generator: Sketch 47.1 (45422) - http://www.bohemiancoding.com/sketch -->
    <title>path3778</title>
    <desc>Created with Sketch.</desc>
    <defs></defs>
    <g id="Design" stroke="none" stroke-width="1" fill="none" fill-rule="evenodd">
        <g id="Group-28" transform="translate(-27.000000, -24.000000)" fill-rule="nonzero" fill="#ffffff">
            <path d="M49,31.000062 C49,31.5523437 48.5523391,32 48.0000517,32 C47.4477643,32 47,31.5523437 47,31.000062 C47,30.4477803 47.4477643,30 48.0000517,30 C48.5523391,30 49,30.4477803 49,31.000062 Z M46,27.0000681 C46,27.5522225 45.5523466,28 45.0000681,28 C44.4476534,28 44,27.5522225 44,27.0000681 C44,26.4476549 44.4476534,26 45.0000681,26 C45.5523466,26 46,26.4476549 46,27.0000681 Z M51,28.5 C51,29.3284207 50.3284207,30 49.5,30 C48.6715793,30 48,29.3284207 48,28.5 C48,27.6714629 48.6715793,27 49.5,27 C50.3284207,27 51,27.6714629 51,28.5 Z M39,33.5 C39,34.3284207 38.3285371,35 37.5,35 C36.6715793,35 36,34.3284207 36,33.5 C36,32.6715793 36.6715793,32 37.5,32 C38.3285371,32 39,32.6715793 39,33.5 Z M35,38.4999541 C35,39.328439 34.3285308,40 33.4999541,40 C32.671561,40 32,39.328439 32,38.4999541 C32,37.671561 32.671561,37 33.4999541,37 C34.3285308,37 35,37.671561 35,38.4999541 Z M43,41.0000472 C43,42.1046059 42.1046059,43 40.9999528,43 C39.8953941,43 39,42.1046059 39,41.0000472 C39,39.8953941 39.8953941,39 40.9999528,39 C42.1046059,39 43,39.8953941 43,41.0000472 Z M39,24 C32.372625,24 27,29.372625 27,36 C27,42.627375 32.372625,48 39,48 C45.627375,48 51,42.627375 51,36 C51,35.1113438 50.9026875,34.2464062 50.7194062,33.4127812 C48.0332813,34.1172187 47.311125,33.3610312 46.7265937,32.1448125 C43.3746563,32.60775 41.7365625,31.3094063 41.8273125,27.9226875 C39.524625,27.6807188 38.898,26.6942812 39,24 Z" id="path3778"></path>
        </g>
    </g>
</svg>
