<svg version="1.1" id="Layer_1" xmlns="http://www.w3.org/2000/svg" xmlns:xlink="http://www.w3.org/1999/xlink" x="0px" y="0px"
	 viewBox="0 0 64 64" style="enable-background:new 0 0 64 64;" xml:space="preserve">
<style type="text/css">
	.st0{fill:#6CC04A;}
	.st1{fill:none;}
</style>
<path class="st0" d="M32,64C14.2,64,0,49.4,0,32C0,14.2,14.6,0,32,0s32,14.6,32,32C64,49.8,49.8,64,32,64z M32,3.6C16.6,3.6,3.6,16.2,3.6,32
	c0,15.4,12.6,28.4,28.4,28.4S60.4,47.8,60.4,32C60.4,16.6,47.4,3.6,32,3.6z"/>
<g class="st0">
	<path d="M29.3,46.6c-0.3,0.8-0.8,1.3-1.7,1.3c-0.9,0-1.7-0.6-1.7-1.5c0-0.5,0.4-1.4,0.5-1.8l8.9-23.8c0.4-1.3,1.2-2.2,2.5-2.2
		s2.1,0.9,2.5,2.2l8.9,23.8c0.1,0.4,0.5,1.3,0.5,1.8c0,0.9-0.8,1.5-1.7,1.5c-1,0-1.5-0.6-1.7-1.3l-1.9-5.2H31.1L29.3,46.6z
		 M37.8,22.8L37.8,22.8l-5.6,15.5h11.1L37.8,22.8z"/>
</g>
<g class="st0">
	<path d="M16.3,34.9c-0.2,0.4-0.4,0.8-1,0.8c-0.5,0-0.8-0.3-0.8-0.7c0-0.2,0.1-0.5,0.2-0.7l5.5-14.9c0.2-0.6,0.5-1.3,1.4-1.3
		c0.9,0,1.1,0.7,1.4,1.3l5.5,14.9c0.1,0.2,0.2,0.5,0.2,0.7c0,0.4-0.3,0.7-0.8,0.7c-0.6,0-0.8-0.4-1-0.8l-1.1-3.1h-8.4L16.3,34.9z
		 M21.7,20.4L21.7,20.4L18,30.2h7.2L21.7,20.4z"/>
</g>
</svg>