<svg version="1.1" id="Layer_1" xmlns="http://www.w3.org/2000/svg" xmlns:xlink="http://www.w3.org/1999/xlink" x="0px" y="0px"
	 viewBox="0 0 64 64" style="enable-background:new 0 0 64 64;" xml:space="preserve">
<style type="text/css">
	.st0{fill:#6CC04A;}
	.st1{fill:none;}
</style>
<path class="st0" d="M32,64C14.2,64,0,49.4,0,32C0,14.2,14.6,0,32,0s32,14.6,32,32C64,49.8,49.8,64,32,64z M32,3.6
	C16.6,3.6,3.6,16.2,3.6,32c0,15.4,12.6,28.4,28.4,28.4S60.4,47.8,60.4,32C60.4,16.6,47.4,3.6,32,3.6z"/>
<g>
	<polygon class="st0" points="30.4,48.3 16.6,34.8 19.4,32 29.6,41.9 44.3,16.9 47.7,18.9 	"/>
</g>
<rect id="_x3C_Slice_x3E__1_" class="st1" width="64" height="64"/>
</svg>