<svg version="1.1" id="Layer_1" xmlns="http://www.w3.org/2000/svg" xmlns:xlink="http://www.w3.org/1999/xlink" x="0px" y="0px"
	 viewBox="0 0 64 64" style="enable-background:new 0 0 64 64;" xml:space="preserve">
<style type="text/css">
	.st0{fill:#6CC04A;}
	.st1{fill:none;}
</style>
<g>
	<path class="st0" d="M32,64C14.2,64,0,49.4,0,32C0,14.2,14.6,0,32,0s32,14.6,32,32C64,49.8,49.8,64,32,64z M32,3.6C16.6,3.6,3.6,16.2,3.6,32
		c0,15.4,12.6,28.4,28.4,28.4S60.4,47.8,60.4,32C60.4,16.6,47.4,3.6,32,3.6z"/>
</g>
<path class="st0" d="M47.7,47.5H15.9V16h4v27.5h27.8V47.5z M30.9,28.9l12.1,8l5.1-20.3l-3.9-1l-3.8,14.9l-11.7-7.7l-5.4,16.1l3.8,1.2L30.9,28.9z
	"/>
</svg>