<svg version="1.1" id="Layer_1" xmlns="http://www.w3.org/2000/svg" xmlns:xlink="http://www.w3.org/1999/xlink" x="0px" y="0px"
	 viewBox="0 0 64 64" style="enable-background:new 0 0 64 64;" xml:space="preserve">
<style type="text/css">
	.st0{fill:#6CC04A;}
	.st1{fill:none;}
</style>
<path class="st0" d="M32,64C14.2,64,0,49.4,0,32C0,14.2,14.6,0,32,0s32,14.6,32,32C64,49.8,49.8,64,32,64z M32,3.6C16.6,3.6,3.6,16.2,3.6,32
	c0,15.4,12.6,28.4,28.4,28.4S60.4,47.8,60.4,32C60.4,16.6,47.4,3.6,32,3.6z"/>
<g class="st0">
	<polygon points="36,47.7 16,47.7 16,17.7 27.4,28.7 24.6,31.6 20,27.1 20,43.7 36,43.7 	"/>
</g>
<g class="st0">
	<polygon points="48,46.6 36.6,35.5 39.4,32.6 44,37.1 44,20.5 28,20.5 28,16.5 48,16.5 	"/>
</g>
</svg>